<svg xmlns="http://www.w3.org/2000/svg" class="none">

    <symbol id="heart" viewBox="0 0 512 512">
        <path d="M340.8,83C307,83,276,98.8,256,124.8c-20-26-51-41.8-84.8-41.8C112.1,83,64,131.3,64,190.7c0,27.9,10.6,54.4,29.9,74.6  L245.1,418l10.9,11l10.9-11l148.3-149.8c21-20.3,32.8-47.9,32.8-77.5C448,131.3,399.9,83,340.8,83L340.8,83z"/>
    </symbol>

    <symbol id="search" viewBox="0 0 512 512">
        <path d="M344.5,298c15-23.6,23.8-51.6,23.8-81.7c0-84.1-68.1-152.3-152.1-152.3C132.1,64,64,132.2,64,216.3  c0,84.1,68.1,152.3,152.1,152.3c30.5,0,58.9-9,82.7-24.4l6.9-4.8L414.3,448l33.7-34.3L339.5,305.1L344.5,298z M301.4,131.2  c22.7,22.7,35.2,52.9,35.2,85c0,32.1-12.5,62.3-35.2,85c-22.7,22.7-52.9,35.2-85,35.2c-32.1,0-62.3-12.5-85-35.2  c-22.7-22.7-35.2-52.9-35.2-85c0-32.1,12.5-62.3,35.2-85c22.7-22.7,52.9-35.2,85-35.2C248.5,96,278.7,108.5,301.4,131.2z"/>
    </symbol>

    <symbol id="clear" viewBox="0 0 64 64">
        <path d="M32,12A20.08,20.08,0,1,0,52.08,32,20.11,20.11,0,0,0,32,12Z"/>
        <path d="M32,7.88a1,1,0,0,1-1-1V2a1,1,0,0,1,2,0V6.88A1,1,0,0,1,32,7.88Z"/>
        <path d="M32,63a1,1,0,0,1-1-1V57.13a1,1,0,0,1,2,0V62A1,1,0,0,1,32,63Z"/>
        <path d="M62,33H57.13a1,1,0,0,1,0-2H62a1,1,0,0,1,0,2Z"/>
        <path d="M6.88,33H2a1,1,0,0,1,0-2H6.88a1,1,0,0,1,0,2Z"/>
        <path d="M53.18,54.18a1,1,0,0,1-.71-.29l-3.42-3.42a1,1,0,0,1,1.41-1.41l3.42,3.42a1,1,0,0,1-.71,1.71Z"/>
        <path d="M14.23,15.23a1,1,0,0,1-.71-.29l-3.42-3.42a1,1,0,0,1,1.41-1.41l3.42,3.42a1,1,0,0,1-.71,1.71Z"/>
        <path d="M10.82,54.18a1,1,0,0,1-.71-1.71l3.42-3.42a1,1,0,0,1,1.41,1.41l-3.42,3.42A1,1,0,0,1,10.82,54.18Z"/>
        <path d="M49.77,15.23a1,1,0,0,1-.71-1.71l3.42-3.42a1,1,0,0,1,1.41,1.41l-3.42,3.42A1,1,0,0,1,49.77,15.23Z"/>
    </symbol>

    <symbol id="clouds" viewBox="0 0 64 64">
        <path class="cls-1" d="M28.87,35.82a1,1,0,1,0-1.82.82q.2.44.43.86a1,1,0,1,0,1.75-1C29.1,36.3,29,36.06,28.87,35.82Z"/>
        <path d="M55.47,35.54a1,1,0,0,1-.9-1.1v-.12a4.26,4.26,0,0,0-4.25-4.25l-.42,0-.31,0h-.07l-.13,0a3.68,3.68,0,0,0-.61.18l-.08,0-.1,0-.13.06h0l0,0a4.21,4.21,0,0,0-2.35,3.8,4.26,4.26,0,0,0,.6,2.19,1,1,0,0,1-1.72,1,6.33,6.33,0,0,1-.88-3.2,6.19,6.19,0,0,1,2.75-5.17,9.63,9.63,0,0,0-9.19-6.88c-.31,0-.61,0-.92,0h-.09l-.14,0-.12,0-.17,0-.44.07-.3.07-.37.09a10.27,10.27,0,0,0-1.19.42l-.43.2a8.63,8.63,0,0,0-.81.44l-.39.25-.33.23-.06,0-.21.17-.35.29-.18.17-.3.28-.31.33c-.12.12-.21.23-.29.33s-.22.26-.3.38a3.61,3.61,0,0,0-.22.32A8.86,8.86,0,0,0,29,27.7c-.07.15-.13.28-.19.43s-.15.35-.21.52-.08.24-.12.35-.09.32-.13.46-.08.32-.11.48-.07.36-.1.54h0A10.35,10.35,0,0,0,28,31.87c0,.24,0,.48,0,.71a1,1,0,0,1-.91,1.08h-.08a1,1,0,0,1-1-.92c0-.29,0-.59,0-.88s0-.33,0-.5a8.15,8.15,0,0,0,.7,16.28H54.86a6.07,6.07,0,0,0,.61-12.1ZM28.84,37.89a1,1,0,0,1-1.36-.39q-.24-.42-.43-.86a1,1,0,1,1,1.82-.82c.11.24.23.48.36.71A1,1,0,0,1,28.84,37.89Z"/>
        <path d="M19,33l.28-.32.24-.25.3-.29L20,31.9l.31-.27.28-.22.33-.24.29-.2.35-.22.3-.17.37-.19.31-.15.39-.16.32-.13.41-.14.32-.1.45-.11.3-.07.51-.08.26,0c.26,0,.52-.05.78-.07,0-.13.06-.27.1-.4s.1-.36.15-.54.09-.27.13-.41.16-.43.25-.65.15-.34.23-.51A10.31,10.31,0,0,1,28,25.35a4.64,4.64,0,0,1,.3-.43c.11-.15.23-.3.36-.45s.21-.26.35-.41l.37-.39c.11-.11.23-.23.35-.33l.11-.11h0a3.14,3.14,0,0,0-2.28-.69l-.23,0h0l-.13,0-.1,0-.12,0-.12,0a2.55,2.55,0,0,0-.35.15h0a3.16,3.16,0,0,0-1.74,2.81,3.08,3.08,0,0,0,.44,1.6,1,1,0,1,1-1.71,1,5.08,5.08,0,0,1-.73-2.64,5.18,5.18,0,0,1,2.14-4.17,7.41,7.41,0,0,0-7-5.14,7.11,7.11,0,0,0-1.84.23l-.31.09-.15,0-.19.06-.36.14a7.39,7.39,0,0,0-1.26.69l-.27.19-.29.23-.29.25-.24.24-.2.21a7.49,7.49,0,0,0-.5.6l-.19.28a6.83,6.83,0,0,0-.54.93c-.05.11-.1.21-.15.32s-.09.22-.13.33a7.44,7.44,0,0,0-.37,1.43h0a7.19,7.19,0,0,0-.08,1.12c0,.18,0,.37,0,.55a1,1,0,0,1-.92,1.07H9.55a1,1,0,0,1-1-.92c0-.23,0-.47,0-.7,0-.05,0-.1,0-.16A6.22,6.22,0,0,0,9.3,36h7.92v0l.08-.19c.07-.18.14-.36.22-.53l.12-.25c.07-.15.15-.3.23-.44l.16-.27.24-.39.19-.27.26-.35Zm-7.89-4.34a1,1,0,0,1-1.36-.39c-.13-.23-.24-.46-.35-.7a1,1,0,0,1,1.82-.82q.13.28.28.55A1,1,0,0,1,11.06,28.66Z"/>
    </symbol>

    <symbol id="mist" viewBox="0 0 64 64">
        <path d="M33,56.26a1.57,1.57,0,0,1-1.53-1.6,1,1,0,0,0-2,0A3.53,3.53,0,1,0,33,51.06H20.82a1,1,0,0,0,0,2H33a1.6,1.6,0,0,1,0,3.2Z"/>
        <path d="M41.59,54.48a2.79,2.79,0,0,1-2.73-2.83,1,1,0,0,0-2,0,4.73,4.73,0,1,0,4.73-4.83H13.35a1,1,0,0,0,0,2H41.59a2.83,2.83,0,0,1,0,5.66Z"/>
        <path class="cls-1" d="M16.95,27.57a1,1,0,1,0-1.82.82q.26.58.57,1.14a1,1,0,0,0,1.75-1Q17.18,28.08,16.95,27.57Z"/>
        <path d="M53.3,26.71a1,1,0,0,1-.89-1.12,1.53,1.53,0,0,0,0-.18,6.1,6.1,0,0,0-7.49-5.95l-.07,0a6,6,0,0,0-.59.17l-.08,0a5.82,5.82,0,0,0-.6.26,6.1,6.1,0,0,0-2.53,8.59,1,1,0,1,1-1.72,1,8.1,8.1,0,0,1,2.64-11A13.4,13.4,0,0,0,29.13,8.74h0c-.45,0-.89,0-1.32.07l-.32,0c-.31,0-.61.08-.91.14l-.6.14-.57.15-.74.25-.37.14q-.42.16-.82.36l-.24.12c-.29.15-.58.3-.86.47l-.14.09c-.3.18-.59.37-.88.58l-.06,0a13.51,13.51,0,0,0-3.67,4.05l-.17.29c-.09.17-.17.35-.26.52s-.21.41-.3.62-.12.29-.17.44-.2.5-.28.76-.08.27-.12.41-.15.55-.22.84-.05.27-.08.41a13.33,13.33,0,0,0-.23,2.43q0,.5,0,1a1,1,0,0,1-.92,1.07h-.08a1,1,0,0,1-1-.93q0-.57,0-1.15c0-.35,0-.7.05-1a11.38,11.38,0,0,0,.56,22.75H52.44a8.56,8.56,0,0,0,.86-17.08ZM17.06,29.92a1,1,0,0,1-1.36-.39q-.31-.56-.57-1.14a1,1,0,1,1,1.82-.82q.23.51.5,1A1,1,0,0,1,17.06,29.92Zm9.09,7.21H38.37a1.6,1.6,0,1,0-1.53-1.6,1,1,0,0,1-2,0,3.53,3.53,0,1,1,3.53,3.6H26.15a1,1,0,1,1,0-2Zm20.77,5.44H18.68a1,1,0,1,1,0-2H46.92a2.83,2.83,0,1,0-2.73-2.83,1,1,0,0,1-2,0,4.73,4.73,0,1,1,4.73,4.83Z"/>
    </symbol>

    <symbol id="rain" viewBox="0 0 64 64">
        <path d="M20,47.13l-1.53,5.7a1,1,0,1,0,1.93.52l1.53-5.7A1,1,0,0,0,20,47.13Z"/>
        <path d="M31.8,47.13l-1.53,5.7a1,1,0,1,0,1.93.52l1.53-5.7a1,1,0,0,0-1.93-.52Z"/>
        <path d="M43.63,47.13l-1.53,5.7a1,1,0,1,0,1.93.52l1.53-5.7a1,1,0,0,0-1.93-.52Z"/>
        <path d="M26,47.13,23.34,57a1,1,0,1,0,1.93.52l2.65-9.88A1,1,0,0,0,26,47.13Z"/>
        <path d="M37.82,47.13,34.9,58a1,1,0,1,0,1.93.52l2.91-10.87a1,1,0,1,0-1.93-.52Z"/>
        <path d="M53.3,24.71a1,1,0,0,1-.89-1.12,1.53,1.53,0,0,0,0-.18,6.1,6.1,0,0,0-7.49-5.95l-.07,0a6,6,0,0,0-.59.17l-.08,0a5.82,5.82,0,0,0-.6.26,6.1,6.1,0,0,0-2.53,8.59,1,1,0,1,1-1.72,1,8.1,8.1,0,0,1,2.64-11A13.4,13.4,0,0,0,29.13,6.74h0c-.45,0-.89,0-1.32.07l-.32,0c-.31,0-.61.08-.91.14l-.6.14-.57.15-.74.25-.37.14q-.42.16-.82.36l-.24.12c-.29.15-.58.3-.86.47l-.14.09c-.3.18-.59.37-.88.58l-.06,0a13.51,13.51,0,0,0-3.67,4.05l-.17.29c-.09.17-.17.35-.26.52s-.21.41-.3.62-.12.29-.17.44-.2.5-.28.76-.08.27-.12.41-.15.55-.22.84-.05.27-.08.41a13.33,13.33,0,0,0-.23,2.43q0,.5,0,1a1,1,0,0,1-.92,1.07h-.08a1,1,0,0,1-1-.93q0-.57,0-1.15c0-.35,0-.7.05-1a11.38,11.38,0,0,0,.56,22.75H52.44a8.56,8.56,0,0,0,.86-17.08ZM17.06,27.92a1,1,0,0,1-1.36-.39q-.31-.56-.57-1.14a1,1,0,1,1,1.82-.82q.23.51.5,1A1,1,0,0,1,17.06,27.92Z"/>
    </symbol>

    <symbol id="snow" viewBox="0 0 64 64">
        <path d="M55.47,25.83a1,1,0,0,1-.9-1.1v-.12a4.26,4.26,0,0,0-4.25-4.25l-.42,0-.31,0h-.07l-.12,0a3.78,3.78,0,0,0-.61.19l-.07,0h0l-.09,0-.14.07h0l0,0a4.21,4.21,0,0,0-2.35,3.79,4.27,4.27,0,0,0,.6,2.19,1,1,0,0,1-1.72,1,6.33,6.33,0,0,1-.88-3.2,6.19,6.19,0,0,1,2.75-5.17,9.63,9.63,0,0,0-9.19-6.88c-.31,0-.61,0-.92,0h-.09l-.14,0-.12,0-.19,0-.42.07-.31.07-.36.09a10,10,0,0,0-1.19.42l-.43.2a8.55,8.55,0,0,0-.81.44l-.38.25-.33.23-.07,0-.21.16-.35.29-.19.17-.29.28-.3.32c-.12.13-.21.23-.29.34s-.22.26-.3.38-.16.21-.22.32A8.85,8.85,0,0,0,29,18c-.07.16-.14.29-.19.43s-.15.35-.21.52-.08.24-.11.35-.1.32-.14.47-.08.31-.11.47-.07.36-.1.54A10.46,10.46,0,0,0,28,22.16c0,.24,0,.48,0,.71A1,1,0,0,1,27.14,24h-.09a1,1,0,0,1-1-.92c0-.29,0-.59,0-.88s0-.33,0-.5a8.15,8.15,0,0,0,.69,16.28H54.86a6.07,6.07,0,0,0,.61-12.1ZM28.84,28.18a1,1,0,0,1-1.36-.39q-.23-.42-.43-.86a1,1,0,1,1,1.82-.82c.11.24.23.48.36.71A1,1,0,0,1,28.84,28.18Z"/>
        <path d="M19,23.29l.28-.32.24-.25.3-.29.26-.23.32-.27.27-.21.34-.24.29-.19.36-.22.3-.17.38-.19.31-.15.4-.17.31-.12.42-.14L24,20l.45-.11.3-.07.51-.08.26,0c.26,0,.52-.05.78-.07l.1-.4c.05-.19.1-.37.16-.54s.08-.27.14-.41.15-.41.24-.62.15-.35.23-.51A10.53,10.53,0,0,1,28,15.64a5.18,5.18,0,0,1,.3-.43c.11-.15.23-.31.36-.45s.22-.26.36-.41l.37-.39c.11-.11.23-.23.35-.33l.11-.11h0a3.16,3.16,0,0,0-2.28-.69l-.22,0-.16,0-.11,0-.11,0-.13,0a2.58,2.58,0,0,0-.35.15h0A3.16,3.16,0,0,0,24.77,16a3.09,3.09,0,0,0,.44,1.6,1,1,0,1,1-1.71,1A5.08,5.08,0,0,1,22.77,16a5.18,5.18,0,0,1,2.14-4.17,7.41,7.41,0,0,0-7-5.14,7.11,7.11,0,0,0-1.84.23L15.74,7l-.15,0-.2.07L15,7.22a7.34,7.34,0,0,0-1.26.69l-.27.19-.28.22-.29.25-.22.21L12.49,9a7.3,7.3,0,0,0-.5.6l-.2.29a6.76,6.76,0,0,0-.54.93c-.06.11-.1.21-.15.32s-.09.22-.13.33a7.38,7.38,0,0,0-.37,1.42A7.15,7.15,0,0,0,10.53,14c0,.18,0,.37,0,.56a1,1,0,0,1-.93,1.07H9.55a1,1,0,0,1-1-.93c0-.23,0-.47,0-.7,0-.06,0-.1,0-.16a6.22,6.22,0,0,0,.77,12.4h7.92v0l.09-.21c.07-.17.14-.35.22-.51l.13-.26c.07-.14.14-.29.22-.43l.16-.27.24-.38.19-.27.26-.35Z"/>
        <path d="M9.7,18.56a1,1,0,0,0,1.75-1q-.15-.27-.27-.55a1,1,0,1,0-1.82.82C9.46,18.1,9.58,18.34,9.7,18.56Z"/>
        <path d="M18,46.66a1,1,0,0,0-1-1h-.78l.55-.55a1,1,0,1,0-1.41-1.41l-.55.55v-.78a1,1,0,0,0-2,0v.78l-.55-.55a1,1,0,0,0-1.41,1.41l.55.55h-.78a1,1,0,0,0,0,2h.78l-.55.55a1,1,0,1,0,1.41,1.41l.55-.55v.78a1,1,0,0,0,2,0v-.78l.55.55a1,1,0,1,0,1.41-1.41l-.55-.55H17A1,1,0,0,0,18,46.66Z"/>
        <path d="M36.19,46.66a1,1,0,0,0-1-1h-.78l.55-.55a1,1,0,0,0-1.41-1.41l-.55.55v-.78a1,1,0,0,0-2,0v.78l-.55-.55A1,1,0,0,0,29,45.11l.55.55h-.78a1,1,0,1,0,0,2h.78l-.55.55a1,1,0,1,0,1.41,1.41l.55-.55v.78a1,1,0,0,0,2,0v-.78l.55.55A1,1,0,0,0,35,48.21l-.55-.55h.78A1,1,0,0,0,36.19,46.66Z"/>
        <path d="M54.38,46.66a1,1,0,0,0-1-1H52.6l.55-.55a1,1,0,0,0-1.41-1.41l-.55.55v-.78a1,1,0,0,0-2,0v.78l-.55-.55a1,1,0,0,0-1.41,1.41l.55.55H47a1,1,0,0,0,0,2h.78l-.55.55a1,1,0,1,0,1.41,1.41l.55-.55v.78a1,1,0,0,0,2,0v-.78l.55.55a1,1,0,0,0,1.41-1.41l-.55-.55h.78A1,1,0,0,0,54.38,46.66Z"/>
        <path d="M27.1,55.16a1,1,0,0,0-1-1h-.78l.55-.55a1,1,0,0,0-1.41-1.41l-.55.55V52a1,1,0,0,0-2,0v.78l-.55-.55a1,1,0,0,0-1.41,1.41l.55.55h-.78a1,1,0,0,0,0,2h.78l-.55.55a1,1,0,1,0,1.41,1.41l.55-.55v.78a1,1,0,0,0,2,0v-.78l.55.55a1,1,0,0,0,1.41-1.41l-.55-.55h.78A1,1,0,0,0,27.1,55.16Z"/>
        <path d="M45.28,55.16a1,1,0,0,0-1-1h-.78l.55-.55a1,1,0,0,0-1.41-1.41l-.55.55V52a1,1,0,0,0-2,0v.78l-.55-.55a1,1,0,0,0-1.41,1.41l.55.55H37.9a1,1,0,0,0,0,2h.78l-.55.55a1,1,0,1,0,1.41,1.41l.55-.55v.78a1,1,0,0,0,2,0v-.78l.55.55a1,1,0,0,0,1.41-1.41l-.55-.55h.78A1,1,0,0,0,45.28,55.16Z"/>
    </symbol>

    <symbol id="thunderstorm" viewBox="0 0 64 64">
        <path d="M53.3,28.3a1,1,0,0,1-.89-1.11,1.52,1.52,0,0,0,0-.19,6.1,6.1,0,0,0-7.49-5.95l-.07,0a6,6,0,0,0-.58.17l-.08,0a5.8,5.8,0,0,0-.6.26h0a6.1,6.1,0,0,0-2.53,8.59,1,1,0,1,1-1.72,1,8.1,8.1,0,0,1,2.64-11,13.4,13.4,0,0,0-12.85-9.83h0c-.44,0-.88,0-1.32.07l-.36.05c-.29,0-.58.08-.87.13l-.63.15-.54.14-.76.25-.35.13q-.43.17-.84.36l-.22.11c-.3.15-.59.31-.88.48l-.13.08c-.3.19-.6.38-.89.59l-.05,0A13.51,13.51,0,0,0,17.6,17l-.17.28c-.09.17-.17.35-.26.52s-.21.41-.3.62-.12.29-.17.44-.2.5-.28.76-.08.27-.12.41-.15.55-.22.84-.05.27-.08.41a13.33,13.33,0,0,0-.23,2.43q0,.5,0,1a1,1,0,0,1-.92,1.07h-.08a1,1,0,0,1-1-.93q0-.57,0-1.15c0-.35,0-.7.05-1a11.38,11.38,0,0,0,.56,22.75H33.85l.76-2.85H28.08a1,1,0,0,1-1-1.26l3.52-13.15a1,1,0,0,1,1.93.52L29.38,40.53h6.54a1,1,0,0,1,1,1.26l-1,3.59H52.44A8.56,8.56,0,0,0,53.3,28.3ZM17.06,31.51a1,1,0,0,1-1.36-.39q-.31-.56-.57-1.14a1,1,0,1,1,1.82-.82q.23.51.5,1A1,1,0,0,1,17.06,31.51Z"/>
    </symbol>
</svg>